<svg width="20" height="20" viewBox="0 0 20 20" fill="none" xmlns="http://www.w3.org/2000/svg">
<path d="M9.99716 14.5671C10.3292 14.5671 10.6085 14.4547 10.8351 14.23C11.0615 14.0054 11.1747 13.7271 11.1747 13.395C11.1747 13.0628 11.0624 12.7815 10.8378 12.5512C10.6131 12.3208 10.3347 12.2056 10.0026 12.2056C9.67049 12.2056 9.39118 12.3208 9.16466 12.5512C8.93827 12.7815 8.82507 13.0628 8.82507 13.395C8.82507 13.7271 8.93736 14.0054 9.16195 14.23C9.38667 14.4547 9.66507 14.5671 9.99716 14.5671ZM8.8957 10.8569H11.104V5.58604H8.8957V10.8569ZM9.99986 18.7337C8.78431 18.7337 7.64604 18.5049 6.58507 18.0471C5.52424 17.5893 4.60146 16.968 3.81674 16.1831C3.03188 15.3984 2.41056 14.4756 1.95278 13.4148C1.495 12.3538 1.26611 11.2156 1.26611 10C1.26611 8.78444 1.495 7.64618 1.95278 6.58521C2.41056 5.52438 3.03188 4.6016 3.81674 3.81688C4.60146 3.03201 5.52424 2.41069 6.58507 1.95292C7.64604 1.49514 8.78431 1.26625 9.99986 1.26625C11.2154 1.26625 12.3537 1.49514 13.4147 1.95292C14.4755 2.41069 15.3983 3.03201 16.183 3.81688C16.9679 4.6016 17.5892 5.52438 18.0469 6.58521C18.5047 7.64618 18.7336 8.78444 18.7336 10C18.7336 11.2156 18.5047 12.3538 18.0469 13.4148C17.5892 14.4756 16.9679 15.3984 16.183 16.1831C15.3983 16.968 14.4755 17.5893 13.4147 18.0471C12.3537 18.5049 11.2154 18.7337 9.99986 18.7337Z" fill="#D64949"/>
</svg>

