<svg width="68" height="66" viewBox="0 0 68 66" fill="none" xmlns="http://www.w3.org/2000/svg">
<path d="M11.6478 55C10.1002 55 8.77534 54.4615 7.67326 53.3844C6.57118 52.3073 6.02014 51.0125 6.02014 49.5V16.5C6.02014 14.9875 6.57118 13.6927 7.67326 12.6156C8.77534 11.5385 10.1002 11 11.6478 11H28.5307L34.1583 16.5H56.6689C58.2165 16.5 59.5413 17.0385 60.6434 18.1156C61.7455 19.1927 62.2965 20.4875 62.2965 22V49.5C62.2965 51.0125 61.7455 52.3073 60.6434 53.3844C59.5413 54.4615 58.2165 55 56.6689 55H11.6478ZM11.6478 49.5H56.6689V22H31.8369L26.2093 16.5H11.6478V49.5Z" fill="#C3C3C6"/>
</svg>
