<svg width="20" height="20" viewBox="0 0 20 20" fill="none" xmlns="http://www.w3.org/2000/svg">
<path d="M8.98986 14.3433H11.0099V9.16665H8.98986V14.3433ZM9.99986 7.7354C10.3026 7.7354 10.5565 7.63297 10.7613 7.42811C10.9662 7.22325 11.0686 6.96943 11.0686 6.66665C11.0686 6.36387 10.9662 6.11005 10.7613 5.90519C10.5565 5.70033 10.3026 5.5979 9.99986 5.5979C9.69709 5.5979 9.44327 5.70033 9.23841 5.90519C9.03354 6.11005 8.93111 6.36387 8.93111 6.66665C8.93111 6.96943 9.03354 7.22325 9.23841 7.42811C9.44327 7.63297 9.69709 7.7354 9.99986 7.7354ZM9.99986 18.7337C8.78431 18.7337 7.64604 18.5048 6.58507 18.0471C5.52424 17.5893 4.60146 16.968 3.81674 16.1831C3.03188 15.3984 2.41056 14.4756 1.95278 13.4148C1.495 12.3538 1.26611 11.2155 1.26611 9.99999C1.26611 8.78443 1.495 7.64617 1.95278 6.58519C2.41056 5.52436 3.03188 4.60158 3.81674 3.81686C4.60146 3.032 5.52424 2.41068 6.58507 1.9529C7.64604 1.49512 8.78431 1.26624 9.99986 1.26624C11.2154 1.26624 12.3537 1.49512 13.4147 1.9529C14.4755 2.41068 15.3983 3.032 16.183 3.81686C16.9679 4.60158 17.5892 5.52436 18.0469 6.58519C18.5047 7.64617 18.7336 8.78443 18.7336 9.99999C18.7336 11.2155 18.5047 12.3538 18.0469 13.4148C17.5892 14.4756 16.9679 15.3984 16.183 16.1831C15.3983 16.968 14.4755 17.5893 13.4147 18.0471C12.3537 18.5048 11.2154 18.7337 9.99986 18.7337Z" fill="#476CFF"/>
</svg>

