<svg width="20" height="20" viewBox="0 0 20 20" fill="none" xmlns="http://www.w3.org/2000/svg">
<path d="M0.491699 17.7002L9.99982 1.26624L19.508 17.7002H0.491699ZM9.99982 14.9646C10.2439 14.9646 10.4536 14.8769 10.629 14.7014C10.8044 14.526 10.8921 14.3164 10.8921 14.0725C10.8921 13.8285 10.8044 13.6207 10.629 13.4492C10.4536 13.2778 10.2439 13.1921 9.99982 13.1921C9.7558 13.1921 9.54607 13.2778 9.37066 13.4492C9.19524 13.6207 9.10753 13.8285 9.10753 14.0725C9.10753 14.3164 9.19524 14.526 9.37066 14.7014C9.54607 14.8769 9.7558 14.9646 9.99982 14.9646ZM9.16649 12.5H10.8332V8.4629H9.16649V12.5Z" fill="#BFB118"/>
</svg>

